<svg xmlns="http://www.w3.org/2000/svg" width="1920" height="400"><path d="M946,233L1023,230L919,85Z" fill="#6fafd7" stroke="#6fafd7" stroke-width="1.51"/><path d="M1023,230L964,20L919,85Z" fill="#7bb6da" stroke="#7bb6da" stroke-width="1.51"/><path d="M964,20L934,-25L919,85Z" fill="#8cbede" stroke="#8cbede" stroke-width="1.51"/><path d="M1023,230L1198,152L964,20Z" fill="#72b0d6" stroke="#72b0d6" stroke-width="1.51"/><path d="M964,20L1038,-66L934,-25Z" fill="#90bfdf" stroke="#90bfdf" stroke-width="1.51"/><path d="M1198,152L1038,-66L964,20Z" fill="#83b8da" stroke="#83b8da" stroke-width="1.51"/><path d="M1198,152L1203,-36L1038,-66Z" fill="#82b6d9" stroke="#82b6d9" stroke-width="1.51"/><path d="M946,233L837,402L1023,230Z" fill="#61a6d1" stroke="#61a6d1" stroke-width="1.51"/><path d="M1023,230L1242,366L1198,152Z" fill="#5aa1cf" stroke="#5aa1cf" stroke-width="1.51"/><path d="M700,234L837,402L946,233Z" fill="#6baad3" stroke="#6baad3" stroke-width="1.51"/><path d="M700,234L946,233L919,85Z" fill="#77b4d8" stroke="#77b4d8" stroke-width="1.51"/><path d="M680,40L700,234L919,85Z" fill="#89bedc" stroke="#89bedc" stroke-width="1.51"/><path d="M934,-25L680,40L919,85Z" fill="#91c2df" stroke="#91c2df" stroke-width="1.51"/><path d="M584,-125L680,40L688,-284Z" fill="#b3d3e8" stroke="#b3d3e8" stroke-width="1.51"/><path d="M1099,521L1242,366L1023,230Z" fill="#4c95c9" stroke="#4c95c9" stroke-width="1.51"/><path d="M1198,152L1416,212L1203,-36Z" fill="#6baad2" stroke="#6baad2" stroke-width="1.51"/><path d="M837,402L1099,521L1023,230Z" fill="#539acb" stroke="#539acb" stroke-width="1.51"/><path d="M1038,-66L940,-266L934,-25Z" fill="#9dc5e3" stroke="#9dc5e3" stroke-width="1.51"/><path d="M1203,-36L1210,-188L1038,-66Z" fill="#92bdde" stroke="#92bdde" stroke-width="1.51"/><path d="M1457,-85L1210,-188L1203,-36Z" fill="#8cb7db" stroke="#8cb7db" stroke-width="1.51"/><path d="M1210,-188L940,-266L1038,-66Z" fill="#9dc4e3" stroke="#9dc4e3" stroke-width="1.51"/><path d="M1242,366L1416,212L1198,152Z" fill="#539ccc" stroke="#539ccc" stroke-width="1.51"/><path d="M1385,410L1416,212L1242,366Z" fill="#4391c5" stroke="#4391c5" stroke-width="1.51"/><path d="M680,40L525,70L700,234Z" fill="#93c3df" stroke="#93c3df" stroke-width="1.51"/><path d="M584,-125L564,-27L680,40Z" fill="#acd0e6" stroke="#acd0e6" stroke-width="1.51"/><path d="M564,-27L525,70L680,40Z" fill="#a4cde3" stroke="#a4cde3" stroke-width="1.51"/><path d="M700,234L691,516L837,402Z" fill="#68a4cf" stroke="#68a4cf" stroke-width="1.51"/><path d="M837,402L808,737L1099,521Z" fill="#4d89c0" stroke="#4d89c0" stroke-width="1.51"/><path d="M543,572L691,516L700,234Z" fill="#6ba1ce" stroke="#6ba1ce" stroke-width="1.51"/><path d="M1313,561L1385,410L1242,366Z" fill="#3885c0" stroke="#3885c0" stroke-width="1.51"/><path d="M688,-284L680,40L934,-25Z" fill="#a8cce5" stroke="#a8cce5" stroke-width="1.51"/><path d="M351,104L392,215L525,70Z" fill="#9ec8e2" stroke="#9ec8e2" stroke-width="1.51"/><path d="M940,-266L688,-284L934,-25Z" fill="#abcee7" stroke="#abcee7" stroke-width="1.51"/><path d="M1210,-188L1113,-360L940,-266Z" fill="#a5c8e5" stroke="#a5c8e5" stroke-width="1.51"/><path d="M940,-266L1113,-360L688,-284Z" fill="#b1d2ea" stroke="#b1d2ea" stroke-width="1.51"/><path d="M1099,521L1313,561L1242,366Z" fill="#3b85c0" stroke="#3b85c0" stroke-width="1.51"/><path d="M1160,686L1313,561L1099,521Z" fill="#377ab7" stroke="#377ab7" stroke-width="1.51"/><path d="M1680,257L1507,95L1416,212Z" fill="#5294c9" stroke="#5294c9" stroke-width="1.51"/><path d="M1416,212L1507,95L1203,-36Z" fill="#6ba6d0" stroke="#6ba6d0" stroke-width="1.51"/><path d="M1210,-188L1484,-203L1113,-360Z" fill="#9abfe0" stroke="#9abfe0" stroke-width="1.51"/><path d="M691,516L686,589L837,402Z" fill="#5f96c8" stroke="#5f96c8" stroke-width="1.51"/><path d="M543,572L686,589L691,516Z" fill="#6593c5" stroke="#6593c5" stroke-width="1.51"/><path d="M1507,95L1457,-85L1203,-36Z" fill="#7badd4" stroke="#7badd4" stroke-width="1.51"/><path d="M1109,708L1160,686L1099,521Z" fill="#3976b4" stroke="#3976b4" stroke-width="1.51"/><path d="M808,737L1109,708L1099,521Z" fill="#4179b4" stroke="#4179b4" stroke-width="1.51"/><path d="M525,70L392,215L700,234Z" fill="#8fc0df" stroke="#8fc0df" stroke-width="1.51"/><path d="M351,104L525,70L328,-67Z" fill="#afd0e6" stroke="#afd0e6" stroke-width="1.51"/><path d="M1507,95L1540,-53L1457,-85Z" fill="#79a7d2" stroke="#79a7d2" stroke-width="1.51"/><path d="M1457,-85L1484,-203L1210,-188Z" fill="#8eb5db" stroke="#8eb5db" stroke-width="1.51"/><path d="M686,589L808,737L837,402Z" fill="#588bc1" stroke="#588bc1" stroke-width="1.51"/><path d="M392,215L543,572L700,234Z" fill="#7ab0d5" stroke="#7ab0d5" stroke-width="1.51"/><path d="M416,709L808,737L686,589Z" fill="#5f84b6" stroke="#5f84b6" stroke-width="1.51"/><path d="M1540,-53L1484,-203L1457,-85Z" fill="#86add6" stroke="#86add6" stroke-width="1.51"/><path d="M1160,686L1357,637L1313,561Z" fill="#2e72b2" stroke="#2e72b2" stroke-width="1.51"/><path d="M1313,561L1565,540L1385,410Z" fill="#2c79b9" stroke="#2c79b9" stroke-width="1.51"/><path d="M1385,410L1680,257L1416,212Z" fill="#438dc4" stroke="#438dc4" stroke-width="1.51"/><path d="M1785,715L1357,637L1160,686Z" fill="#2464a5" stroke="#2464a5" stroke-width="1.51"/><path d="M328,-67L525,70L564,-27Z" fill="#b0d2e7" stroke="#b0d2e7" stroke-width="1.51"/><path d="M328,-67L564,-27L584,-125Z" fill="#b8d5ea" stroke="#b8d5ea" stroke-width="1.51"/><path d="M392,215L323,279L543,572Z" fill="#81b1d8" stroke="#81b1d8" stroke-width="1.51"/><path d="M351,104L323,279L392,215Z" fill="#97c3e1" stroke="#97c3e1" stroke-width="1.51"/><path d="M109,181L150,295L323,279Z" fill="#99c1e1" stroke="#99c1e1" stroke-width="1.51"/><path d="M441,-327L328,-67L584,-125Z" fill="#c4dbee" stroke="#c4dbee" stroke-width="1.51"/><path d="M1357,637L1565,540L1313,561Z" fill="#2971b2" stroke="#2971b2" stroke-width="1.51"/><path d="M1507,95L1705,177L1540,-53Z" fill="#679dcc" stroke="#679dcc" stroke-width="1.51"/><path d="M1565,540L1680,257L1385,410Z" fill="#317fbc" stroke="#317fbc" stroke-width="1.51"/><path d="M1540,-53L1761,-96L1484,-203Z" fill="#83a8d4" stroke="#83a8d4" stroke-width="1.51"/><path d="M688,-284L441,-327L584,-125Z" fill="#c2dced" stroke="#c2dced" stroke-width="1.51"/><path d="M1113,-360L441,-327L688,-284Z" fill="#bedaec" stroke="#bedaec" stroke-width="1.51"/><path d="M1680,257L1705,177L1507,95Z" fill="#5191c7" stroke="#5191c7" stroke-width="1.51"/><path d="M1680,257L1744,162L1705,177Z" fill="#4b8bc2" stroke="#4b8bc2" stroke-width="1.51"/><path d="M1705,177L1744,162L1540,-53Z" fill="#6197c9" stroke="#6197c9" stroke-width="1.51"/><path d="M1823,324L1744,162L1680,257Z" fill="#4185be" stroke="#4185be" stroke-width="1.51"/><path d="M441,-327L348,-300L328,-67Z" fill="#cde1f1" stroke="#cde1f1" stroke-width="1.51"/><path d="M323,279L300,549L543,572Z" fill="#7ba4d2" stroke="#7ba4d2" stroke-width="1.51"/><path d="M543,572L416,709L686,589Z" fill="#678ec0" stroke="#678ec0" stroke-width="1.51"/><path d="M118,459L300,549L323,279Z" fill="#86acd6" stroke="#86acd6" stroke-width="1.51"/><path d="M300,549L416,709L543,572Z" fill="#7192c4" stroke="#7192c4" stroke-width="1.51"/><path d="M1744,162L1761,-96L1540,-53Z" fill="#719ccc" stroke="#719ccc" stroke-width="1.51"/><path d="M1484,-203L1698,-316L1113,-360Z" fill="#99b9dd" stroke="#99b9dd" stroke-width="1.51"/><path d="M151,-9L351,104L328,-67Z" fill="#b9d6ea" stroke="#b9d6ea" stroke-width="1.51"/><path d="M109,181L323,279L351,104Z" fill="#9ec6e4" stroke="#9ec6e4" stroke-width="1.51"/><path d="M64,-237L151,-9L328,-67Z" fill="#ccdef1" stroke="#ccdef1" stroke-width="1.51"/><path d="M1565,540L1823,324L1680,257Z" fill="#2f7bba" stroke="#2f7bba" stroke-width="1.51"/><path d="M1357,637L1685,633L1565,540Z" fill="#2068ad" stroke="#2068ad" stroke-width="1.51"/><path d="M1785,715L1685,633L1357,637Z" fill="#195ea4" stroke="#195ea4" stroke-width="1.51"/><path d="M1761,-96L1698,-316L1484,-203Z" fill="#8aa9d5" stroke="#8aa9d5" stroke-width="1.51"/><path d="M1744,162L2038,-42L1761,-96Z" fill="#6c94c6" stroke="#6c94c6" stroke-width="1.51"/><path d="M1685,633L1823,324L1565,540Z" fill="#1f6db2" stroke="#1f6db2" stroke-width="1.51"/><path d="M151,-9L109,181L351,104Z" fill="#b0d1e7" stroke="#b0d1e7" stroke-width="1.51"/><path d="M1761,-96L1782,-263L1698,-316Z" fill="#89a5d1" stroke="#89a5d1" stroke-width="1.51"/><path d="M2038,-42L1782,-263L1761,-96Z" fill="#7e9acb" stroke="#7e9acb" stroke-width="1.51"/><path d="M416,709L325,768L808,737Z" fill="#637fae" stroke="#637fae" stroke-width="1.51"/><path d="M300,549L325,768L416,709Z" fill="#718cbc" stroke="#718cbc" stroke-width="1.51"/><path d="M3,696L325,768L300,549Z" fill="#788fbf" stroke="#788fbf" stroke-width="1.51"/><path d="M150,295L118,459L323,279Z" fill="#8eb8dc" stroke="#8eb8dc" stroke-width="1.51"/><path d="M-54,270L118,459L150,295Z" fill="#93bbdd" stroke="#93bbdd" stroke-width="1.51"/><path d="M2108,191L2038,-42L1744,162Z" fill="#5987bc" stroke="#5987bc" stroke-width="1.51"/><path d="M1685,633L1866,565L1823,324Z" fill="#1c67ad" stroke="#1c67ad" stroke-width="1.51"/><path d="M1685,633L1785,715L1866,565Z" fill="#1159a2" stroke="#1159a2" stroke-width="1.51"/><path d="M1109,708L1785,715L1160,686Z" fill="#2865a3" stroke="#2865a3" stroke-width="1.51"/><path d="M808,737L1785,715L1109,708Z" fill="#2f68a3" stroke="#2f68a3" stroke-width="1.51"/><path d="M325,768L1785,715L808,737Z" fill="#4070a5" stroke="#4070a5" stroke-width="1.51"/><path d="M-140,174L-54,270L109,181Z" fill="#a6cbe6" stroke="#a6cbe6" stroke-width="1.51"/><path d="M109,181L-54,270L150,295Z" fill="#9ec4e3" stroke="#9ec4e3" stroke-width="1.51"/><path d="M348,-300L64,-237L328,-67Z" fill="#d1e2f3" stroke="#d1e2f3" stroke-width="1.51"/><path d="M-143,-249L64,-237L348,-300Z" fill="#dce9f7" stroke="#dce9f7" stroke-width="1.51"/><path d="M-140,174L109,181L151,-9Z" fill="#b2d2e8" stroke="#b2d2e8" stroke-width="1.51"/><path d="M118,459L3,696L300,549Z" fill="#819ecd" stroke="#819ecd" stroke-width="1.51"/><path d="M-54,270L-5,542L118,459Z" fill="#8fb2d9" stroke="#8fb2d9" stroke-width="1.51"/><path d="M1866,565L2016,411L1823,324Z" fill="#226aae" stroke="#226aae" stroke-width="1.51"/><path d="M2116,376L2016,411L2135,425Z" fill="#2464a4" stroke="#2464a4" stroke-width="1.51"/><path d="M2094,241L1744,162L1823,324Z" fill="#407eb9" stroke="#407eb9" stroke-width="1.51"/><path d="M64,-237L-81,-107L151,-9Z" fill="#d1e2f3" stroke="#d1e2f3" stroke-width="1.51"/><path d="M2016,411L2094,241L1823,324Z" fill="#3072b1" stroke="#3072b1" stroke-width="1.51"/><path d="M-5,686L3,696L-5,542Z" fill="#8298c7" stroke="#8298c7" stroke-width="1.51"/><path d="M-5,542L3,696L118,459Z" fill="#85a0ce" stroke="#85a0ce" stroke-width="1.51"/><path d="M-54,270L-221,375L-5,542Z" fill="#95b8dc" stroke="#95b8dc" stroke-width="1.51"/><path d="M-81,-107L-140,174L151,-9Z" fill="#c2dced" stroke="#c2dced" stroke-width="1.51"/><path d="M-215,687L-5,686L-5,542Z" fill="#8599c9" stroke="#8599c9" stroke-width="1.51"/><path d="M2094,241L2108,191L1744,162Z" fill="#457db8" stroke="#457db8" stroke-width="1.51"/><path d="M2038,-42L2075,-309L1782,-263Z" fill="#8299c8" stroke="#8299c8" stroke-width="1.51"/><path d="M2108,191L2118,-13L2038,-42Z" fill="#6185b6" stroke="#6185b6" stroke-width="1.51"/><path d="M2108,191L2193,64L2118,-13Z" fill="#5a7fb0" stroke="#5a7fb0" stroke-width="1.51"/><path d="M2094,241L2116,376L2108,191Z" fill="#3870aa" stroke="#3870aa" stroke-width="1.51"/><path d="M2016,411L2116,376L2094,241Z" fill="#2b6ba9" stroke="#2b6ba9" stroke-width="1.51"/><path d="M2135,425L2016,411L2092,718Z" fill="#14589d" stroke="#14589d" stroke-width="1.51"/><path d="M2116,376L2193,64L2108,191Z" fill="#4074ab" stroke="#4074ab" stroke-width="1.51"/><path d="M2092,718L2016,411L1866,565Z" fill="#1057a0" stroke="#1057a0" stroke-width="1.51"/><path d="M2118,-13L2075,-309L2038,-42Z" fill="#788ebe" stroke="#788ebe" stroke-width="1.51"/><path d="M1782,-263L2075,-309L1698,-316Z" fill="#8da3d0" stroke="#8da3d0" stroke-width="1.51"/><path d="M1698,-316L2250,-363L1113,-360Z" fill="#96afd7" stroke="#96afd7" stroke-width="1.51"/><path d="M-81,-107L-231,3L-140,174Z" fill="#c7dfee" stroke="#c7dfee" stroke-width="1.51"/><path d="M64,-237L-143,-249L-81,-107Z" fill="#dbe9f6" stroke="#dbe9f6" stroke-width="1.51"/><path d="M-280,-275L-143,-249L348,-300Z" fill="#e1edf8" stroke="#e1edf8" stroke-width="1.51"/><path d="M2118,-13L2250,-363L2075,-309Z" fill="#7f90bb" stroke="#7f90bb" stroke-width="1.51"/><path d="M2135,425L2193,64L2116,376Z" fill="#346ca6" stroke="#346ca6" stroke-width="1.51"/><path d="M-143,-249L-231,3L-81,-107Z" fill="#d9e7f5" stroke="#d9e7f5" stroke-width="1.51"/><path d="M-140,174L-221,375L-54,270Z" fill="#a3c7e4" stroke="#a3c7e4" stroke-width="1.51"/><path d="M-374,110L-221,375L-140,174Z" fill="#adcee8" stroke="#adcee8" stroke-width="1.51"/><path d="M2135,425L2120,711L2193,64Z" fill="#2461a0" stroke="#2461a0" stroke-width="1.51"/><path d="M1785,715L2092,718L1866,565Z" fill="#0c4f98" stroke="#0c4f98" stroke-width="1.51"/><path d="M325,768L2092,718L1785,715Z" fill="#255f9c" stroke="#255f9c" stroke-width="1.51"/><path d="M2092,718L2120,711L2135,425Z" fill="#0b4b92" stroke="#0b4b92" stroke-width="1.51"/><path d="M-282,546L-215,687L-5,542Z" fill="#8ba2ce" stroke="#8ba2ce" stroke-width="1.51"/><path d="M-5,686L-215,687L3,696Z" fill="#8292bf" stroke="#8292bf" stroke-width="1.51"/><path d="M3,696L-215,687L325,768Z" fill="#7c8db9" stroke="#7c8db9" stroke-width="1.51"/><path d="M-282,546L-5,542L-221,375Z" fill="#91aed8" stroke="#91aed8" stroke-width="1.51"/><path d="M-374,110L-282,546L-221,375Z" fill="#a1c3e2" stroke="#a1c3e2" stroke-width="1.51"/><path d="M-231,3L-374,110L-140,174Z" fill="#c0dbed" stroke="#c0dbed" stroke-width="1.51"/><path d="M-143,-249L-280,-275L-231,3Z" fill="#e0ebf8" stroke="#e0ebf8" stroke-width="1.51"/><path d="M441,-327L-280,-275L348,-300Z" fill="#dceaf7" stroke="#dceaf7" stroke-width="1.51"/><path d="M-280,-275L-374,110L-231,3Z" fill="#d7e7f5" stroke="#d7e7f5" stroke-width="1.51"/><path d="M2193,64L2250,-363L2118,-13Z" fill="#7387b5" stroke="#7387b5" stroke-width="1.51"/><path d="M2075,-309L2250,-363L1698,-316Z" fill="#8c9dc9" stroke="#8c9dc9" stroke-width="1.51"/><path d="M2120,711L2250,-363L2193,64Z" fill="#4e77ab" stroke="#4e77ab" stroke-width="1.51"/></svg>