<svg xmlns="http://www.w3.org/2000/svg" width="1920" height="400"><path d="M946,233L1023,230L919,85Z" fill="#77aad0" stroke="#77aad0" stroke-width="1.51"/><path d="M1023,230L964,20L919,85Z" fill="#83aed3" stroke="#83aed3" stroke-width="1.51"/><path d="M964,20L934,-25L919,85Z" fill="#94b5d7" stroke="#94b5d7" stroke-width="1.51"/><path d="M1023,230L1198,152L964,20Z" fill="#79a9cf" stroke="#79a9cf" stroke-width="1.51"/><path d="M964,20L1038,-66L934,-25Z" fill="#99b8d8" stroke="#99b8d8" stroke-width="1.51"/><path d="M1198,152L1038,-66L964,20Z" fill="#89b0d3" stroke="#89b0d3" stroke-width="1.51"/><path d="M1198,152L1203,-36L1038,-66Z" fill="#87aed3" stroke="#87aed3" stroke-width="1.51"/><path d="M946,233L837,402L1023,230Z" fill="#66a2cb" stroke="#66a2cb" stroke-width="1.51"/><path d="M1023,230L1242,366L1198,152Z" fill="#5b9dc8" stroke="#5b9dc8" stroke-width="1.51"/><path d="M700,234L837,402L946,233Z" fill="#6fa5cd" stroke="#6fa5cd" stroke-width="1.51"/><path d="M700,234L946,233L919,85Z" fill="#7fadd1" stroke="#7fadd1" stroke-width="1.51"/><path d="M680,40L700,234L919,85Z" fill="#92b4d6" stroke="#92b4d6" stroke-width="1.51"/><path d="M934,-25L680,40L919,85Z" fill="#9ab8d8" stroke="#9ab8d8" stroke-width="1.51"/><path d="M584,-125L680,40L688,-284Z" fill="#bdc8e2" stroke="#bdc8e2" stroke-width="1.51"/><path d="M1099,521L1242,366L1023,230Z" fill="#4793c3" stroke="#4793c3" stroke-width="1.51"/><path d="M1198,152L1416,212L1203,-36Z" fill="#6da4cc" stroke="#6da4cc" stroke-width="1.51"/><path d="M837,402L1099,521L1023,230Z" fill="#5397c5" stroke="#5397c5" stroke-width="1.51"/><path d="M1038,-66L940,-266L934,-25Z" fill="#a6bfdc" stroke="#a6bfdc" stroke-width="1.51"/><path d="M1203,-36L1210,-188L1038,-66Z" fill="#98b6d7" stroke="#98b6d7" stroke-width="1.51"/><path d="M1457,-85L1210,-188L1203,-36Z" fill="#8fb1d4" stroke="#8fb1d4" stroke-width="1.51"/><path d="M1210,-188L940,-266L1038,-66Z" fill="#a6bfdc" stroke="#a6bfdc" stroke-width="1.51"/><path d="M1242,366L1416,212L1198,152Z" fill="#5099c5" stroke="#5099c5" stroke-width="1.51"/><path d="M1385,410L1416,212L1242,366Z" fill="#388fc0" stroke="#388fc0" stroke-width="1.51"/><path d="M680,40L525,70L700,234Z" fill="#9bb8d8" stroke="#9bb8d8" stroke-width="1.51"/><path d="M584,-125L564,-27L680,40Z" fill="#b5c4df" stroke="#b5c4df" stroke-width="1.51"/><path d="M564,-27L525,70L680,40Z" fill="#acc0dd" stroke="#acc0dd" stroke-width="1.51"/><path d="M700,234L691,516L837,402Z" fill="#699eca" stroke="#699eca" stroke-width="1.51"/><path d="M837,402L808,737L1099,521Z" fill="#4e88b8" stroke="#4e88b8" stroke-width="1.51"/><path d="M543,572L691,516L700,234Z" fill="#6c9ac8" stroke="#6c9ac8" stroke-width="1.51"/><path d="M1313,561L1385,410L1242,366Z" fill="#2983ba" stroke="#2983ba" stroke-width="1.51"/><path d="M688,-284L680,40L934,-25Z" fill="#b2c2de" stroke="#b2c2de" stroke-width="1.51"/><path d="M351,104L392,215L525,70Z" fill="#a7bedc" stroke="#a7bedc" stroke-width="1.51"/><path d="M940,-266L688,-284L934,-25Z" fill="#b6c8e1" stroke="#b6c8e1" stroke-width="1.51"/><path d="M1210,-188L1113,-360L940,-266Z" fill="#adc4df" stroke="#adc4df" stroke-width="1.51"/><path d="M940,-266L1113,-360L688,-284Z" fill="#bacde4" stroke="#bacde4" stroke-width="1.51"/><path d="M1099,521L1313,561L1242,366Z" fill="#3183ba" stroke="#3183ba" stroke-width="1.51"/><path d="M1160,686L1313,561L1099,521Z" fill="#317bae" stroke="#317bae" stroke-width="1.51"/><path d="M1680,257L1507,95L1416,212Z" fill="#5292c3" stroke="#5292c3" stroke-width="1.51"/><path d="M1416,212L1507,95L1203,-36Z" fill="#6ca0ca" stroke="#6ca0ca" stroke-width="1.51"/><path d="M1210,-188L1484,-203L1113,-360Z" fill="#9fbdda" stroke="#9fbdda" stroke-width="1.51"/><path d="M691,516L686,589L837,402Z" fill="#6091c1" stroke="#6091c1" stroke-width="1.51"/><path d="M543,572L686,589L691,516Z" fill="#668fbc" stroke="#668fbc" stroke-width="1.51"/><path d="M1507,95L1457,-85L1203,-36Z" fill="#7da6ce" stroke="#7da6ce" stroke-width="1.51"/><path d="M1109,708L1160,686L1099,521Z" fill="#377aa9" stroke="#377aa9" stroke-width="1.51"/><path d="M808,737L1109,708L1099,521Z" fill="#427ca8" stroke="#427ca8" stroke-width="1.51"/><path d="M525,70L392,215L700,234Z" fill="#98b7d7" stroke="#98b7d7" stroke-width="1.51"/><path d="M351,104L525,70L328,-67Z" fill="#b7c5e0" stroke="#b7c5e0" stroke-width="1.51"/><path d="M1507,95L1540,-53L1457,-85Z" fill="#7ba1cb" stroke="#7ba1cb" stroke-width="1.51"/><path d="M1457,-85L1484,-203L1210,-188Z" fill="#91b1d4" stroke="#91b1d4" stroke-width="1.51"/><path d="M686,589L808,737L837,402Z" fill="#5a8ab8" stroke="#5a8ab8" stroke-width="1.51"/><path d="M392,215L543,572L700,234Z" fill="#7ca9cf" stroke="#7ca9cf" stroke-width="1.51"/><path d="M416,709L808,737L686,589Z" fill="#5f83aa" stroke="#5f83aa" stroke-width="1.51"/><path d="M1540,-53L1484,-203L1457,-85Z" fill="#89a8d0" stroke="#89a8d0" stroke-width="1.51"/><path d="M1160,686L1357,637L1313,561Z" fill="#2575a7" stroke="#2575a7" stroke-width="1.51"/><path d="M1313,561L1565,540L1385,410Z" fill="#1b79b3" stroke="#1b79b3" stroke-width="1.51"/><path d="M1385,410L1680,257L1416,212Z" fill="#3c8bbe" stroke="#3c8bbe" stroke-width="1.51"/><path d="M1785,715L1357,637L1160,686Z" fill="#176899" stroke="#176899" stroke-width="1.51"/><path d="M328,-67L525,70L564,-27Z" fill="#b9c6e0" stroke="#b9c6e0" stroke-width="1.51"/><path d="M328,-67L564,-27L584,-125Z" fill="#c2cae2" stroke="#c2cae2" stroke-width="1.51"/><path d="M392,215L323,279L543,572Z" fill="#83abd1" stroke="#83abd1" stroke-width="1.51"/><path d="M351,104L323,279L392,215Z" fill="#a0bbda" stroke="#a0bbda" stroke-width="1.51"/><path d="M109,181L150,295L323,279Z" fill="#a0bbda" stroke="#a0bbda" stroke-width="1.51"/><path d="M441,-327L328,-67L584,-125Z" fill="#cfd2e7" stroke="#cfd2e7" stroke-width="1.51"/><path d="M1357,637L1565,540L1313,561Z" fill="#1b73aa" stroke="#1b73aa" stroke-width="1.51"/><path d="M1507,95L1705,177L1540,-53Z" fill="#6897c6" stroke="#6897c6" stroke-width="1.51"/><path d="M1565,540L1680,257L1385,410Z" fill="#217db7" stroke="#217db7" stroke-width="1.51"/><path d="M1540,-53L1761,-96L1484,-203Z" fill="#86a2cd" stroke="#86a2cd" stroke-width="1.51"/><path d="M688,-284L441,-327L584,-125Z" fill="#ced4e8" stroke="#ced4e8" stroke-width="1.51"/><path d="M1113,-360L441,-327L688,-284Z" fill="#c7d3e8" stroke="#c7d3e8" stroke-width="1.51"/><path d="M1680,257L1705,177L1507,95Z" fill="#528dc1" stroke="#528dc1" stroke-width="1.51"/><path d="M1680,257L1744,162L1705,177Z" fill="#4c89bb" stroke="#4c89bb" stroke-width="1.51"/><path d="M1705,177L1744,162L1540,-53Z" fill="#6292c3" stroke="#6292c3" stroke-width="1.51"/><path d="M1823,324L1744,162L1680,257Z" fill="#4084b7" stroke="#4084b7" stroke-width="1.51"/><path d="M441,-327L348,-300L328,-67Z" fill="#d9d9ea" stroke="#d9d9ea" stroke-width="1.51"/><path d="M323,279L300,549L543,572Z" fill="#7d9fcb" stroke="#7d9fcb" stroke-width="1.51"/><path d="M543,572L416,709L686,589Z" fill="#6a8cb5" stroke="#6a8cb5" stroke-width="1.51"/><path d="M118,459L300,549L323,279Z" fill="#88a7cf" stroke="#88a7cf" stroke-width="1.51"/><path d="M300,549L416,709L543,572Z" fill="#7391b9" stroke="#7391b9" stroke-width="1.51"/><path d="M1744,162L1761,-96L1540,-53Z" fill="#7297c5" stroke="#7297c5" stroke-width="1.51"/><path d="M1484,-203L1698,-316L1113,-360Z" fill="#9bb7d8" stroke="#9bb7d8" stroke-width="1.51"/><path d="M151,-9L351,104L328,-67Z" fill="#c3cae3" stroke="#c3cae3" stroke-width="1.51"/><path d="M109,181L323,279L351,104Z" fill="#a7bfdc" stroke="#a7bfdc" stroke-width="1.51"/><path d="M64,-237L151,-9L328,-67Z" fill="#d6d5e8" stroke="#d6d5e8" stroke-width="1.51"/><path d="M1565,540L1823,324L1680,257Z" fill="#1f7ab3" stroke="#1f7ab3" stroke-width="1.51"/><path d="M1357,637L1685,633L1565,540Z" fill="#116ba4" stroke="#116ba4" stroke-width="1.51"/><path d="M1785,715L1685,633L1357,637Z" fill="#076299" stroke="#076299" stroke-width="1.51"/><path d="M1761,-96L1698,-316L1484,-203Z" fill="#8ea7cf" stroke="#8ea7cf" stroke-width="1.51"/><path d="M1744,162L2038,-42L1761,-96Z" fill="#6e91bc" stroke="#6e91bc" stroke-width="1.51"/><path d="M1685,633L1823,324L1565,540Z" fill="#056dab" stroke="#056dab" stroke-width="1.51"/><path d="M151,-9L109,181L351,104Z" fill="#b9c7e1" stroke="#b9c7e1" stroke-width="1.51"/><path d="M1761,-96L1782,-263L1698,-316Z" fill="#8ea4ca" stroke="#8ea4ca" stroke-width="1.51"/><path d="M2038,-42L1782,-263L1761,-96Z" fill="#829ac1" stroke="#829ac1" stroke-width="1.51"/><path d="M416,709L325,768L808,737Z" fill="#647fa1" stroke="#647fa1" stroke-width="1.51"/><path d="M300,549L325,768L416,709Z" fill="#738baf" stroke="#738baf" stroke-width="1.51"/><path d="M3,696L325,768L300,549Z" fill="#7b91b2" stroke="#7b91b2" stroke-width="1.51"/><path d="M150,295L118,459L323,279Z" fill="#91b3d5" stroke="#91b3d5" stroke-width="1.51"/><path d="M-54,270L118,459L150,295Z" fill="#97b7d7" stroke="#97b7d7" stroke-width="1.51"/><path d="M2108,191L2038,-42L1744,162Z" fill="#5b86b1" stroke="#5b86b1" stroke-width="1.51"/><path d="M1685,633L1866,565L1823,324Z" fill="#0569a5" stroke="#0569a5" stroke-width="1.51"/><path d="M1685,633L1785,715L1866,565Z" fill="#055f96" stroke="#055f96" stroke-width="1.51"/><path d="M1109,708L1785,715L1160,686Z" fill="#1c6997" stroke="#1c6997" stroke-width="1.51"/><path d="M808,737L1785,715L1109,708Z" fill="#276c96" stroke="#276c96" stroke-width="1.51"/><path d="M325,768L1785,715L808,737Z" fill="#407298" stroke="#407298" stroke-width="1.51"/><path d="M-140,174L-54,270L109,181Z" fill="#b0c7e0" stroke="#b0c7e0" stroke-width="1.51"/><path d="M109,181L-54,270L150,295Z" fill="#a6bfdc" stroke="#a6bfdc" stroke-width="1.51"/><path d="M348,-300L64,-237L328,-67Z" fill="#dcdbeb" stroke="#dcdbeb" stroke-width="1.51"/><path d="M-143,-249L64,-237L348,-300Z" fill="#e8e4f0" stroke="#e8e4f0" stroke-width="1.51"/><path d="M-140,174L109,181L151,-9Z" fill="#bccbe3" stroke="#bccbe3" stroke-width="1.51"/><path d="M118,459L3,696L300,549Z" fill="#849dc3" stroke="#849dc3" stroke-width="1.51"/><path d="M-54,270L-5,542L118,459Z" fill="#92afd4" stroke="#92afd4" stroke-width="1.51"/><path d="M1866,565L2016,411L1823,324Z" fill="#136da5" stroke="#136da5" stroke-width="1.51"/><path d="M2116,376L2016,411L2135,425Z" fill="#176798" stroke="#176798" stroke-width="1.51"/><path d="M2094,241L1744,162L1823,324Z" fill="#3f80b0" stroke="#3f80b0" stroke-width="1.51"/><path d="M64,-237L-81,-107L151,-9Z" fill="#dddbeb" stroke="#dddbeb" stroke-width="1.51"/><path d="M2016,411L2094,241L1823,324Z" fill="#2775a6" stroke="#2775a6" stroke-width="1.51"/><path d="M-5,686L3,696L-5,542Z" fill="#869bbc" stroke="#869bbc" stroke-width="1.51"/><path d="M-5,542L3,696L118,459Z" fill="#89a0c6" stroke="#89a0c6" stroke-width="1.51"/><path d="M-54,270L-221,375L-5,542Z" fill="#99b5d7" stroke="#99b5d7" stroke-width="1.51"/><path d="M-81,-107L-140,174L151,-9Z" fill="#ced3e8" stroke="#ced3e8" stroke-width="1.51"/><path d="M-215,687L-5,686L-5,542Z" fill="#8a9dbe" stroke="#8a9dbe" stroke-width="1.51"/><path d="M2094,241L2108,191L1744,162Z" fill="#4880ac" stroke="#4880ac" stroke-width="1.51"/><path d="M2038,-42L2075,-309L1782,-263Z" fill="#869bbe" stroke="#869bbe" stroke-width="1.51"/><path d="M2108,191L2118,-13L2038,-42Z" fill="#6284aa" stroke="#6284aa" stroke-width="1.51"/><path d="M2108,191L2193,64L2118,-13Z" fill="#5a7fa4" stroke="#5a7fa4" stroke-width="1.51"/><path d="M2094,241L2116,376L2108,191Z" fill="#35739f" stroke="#35739f" stroke-width="1.51"/><path d="M2016,411L2116,376L2094,241Z" fill="#206f9d" stroke="#206f9d" stroke-width="1.51"/><path d="M2135,425L2016,411L2092,718Z" fill="#045c92" stroke="#045c92" stroke-width="1.51"/><path d="M2116,376L2193,64L2108,191Z" fill="#41769e" stroke="#41769e" stroke-width="1.51"/><path d="M2092,718L2016,411L1866,565Z" fill="#045e93" stroke="#045e93" stroke-width="1.51"/><path d="M2118,-13L2075,-309L2038,-42Z" fill="#7a8fb1" stroke="#7a8fb1" stroke-width="1.51"/><path d="M1782,-263L2075,-309L1698,-316Z" fill="#90a5c7" stroke="#90a5c7" stroke-width="1.51"/><path d="M1698,-316L2250,-363L1113,-360Z" fill="#97add1" stroke="#97add1" stroke-width="1.51"/><path d="M-81,-107L-231,3L-140,174Z" fill="#d1d7e9" stroke="#d1d7e9" stroke-width="1.51"/><path d="M64,-237L-143,-249L-81,-107Z" fill="#e8e4f0" stroke="#e8e4f0" stroke-width="1.51"/><path d="M-280,-275L-143,-249L348,-300Z" fill="#eee8f3" stroke="#eee8f3" stroke-width="1.51"/><path d="M2118,-13L2250,-363L2075,-309Z" fill="#8292af" stroke="#8292af" stroke-width="1.51"/><path d="M2135,425L2193,64L2116,376Z" fill="#2f6f9a" stroke="#2f6f9a" stroke-width="1.51"/><path d="M-143,-249L-231,3L-81,-107Z" fill="#e4e0ee" stroke="#e4e0ee" stroke-width="1.51"/><path d="M-140,174L-221,375L-54,270Z" fill="#a9c3de" stroke="#a9c3de" stroke-width="1.51"/><path d="M-374,110L-221,375L-140,174Z" fill="#b5cae2" stroke="#b5cae2" stroke-width="1.51"/><path d="M2135,425L2120,711L2193,64Z" fill="#176494" stroke="#176494" stroke-width="1.51"/><path d="M1785,715L2092,718L1866,565Z" fill="#035789" stroke="#035789" stroke-width="1.51"/><path d="M325,768L2092,718L1785,715Z" fill="#186390" stroke="#186390" stroke-width="1.51"/><path d="M2092,718L2120,711L2135,425Z" fill="#035382" stroke="#035382" stroke-width="1.51"/><path d="M-282,546L-215,687L-5,542Z" fill="#8fa3c6" stroke="#8fa3c6" stroke-width="1.51"/><path d="M-5,686L-215,687L3,696Z" fill="#8496b3" stroke="#8496b3" stroke-width="1.51"/><path d="M3,696L-215,687L325,768Z" fill="#7e8fac" stroke="#7e8fac" stroke-width="1.51"/><path d="M-282,546L-5,542L-221,375Z" fill="#94acd3" stroke="#94acd3" stroke-width="1.51"/><path d="M-374,110L-282,546L-221,375Z" fill="#a3c0dd" stroke="#a3c0dd" stroke-width="1.51"/><path d="M-231,3L-374,110L-140,174Z" fill="#c9d4e8" stroke="#c9d4e8" stroke-width="1.51"/><path d="M-143,-249L-280,-275L-231,3Z" fill="#ebe6f2" stroke="#ebe6f2" stroke-width="1.51"/><path d="M441,-327L-280,-275L348,-300Z" fill="#e7e4f0" stroke="#e7e4f0" stroke-width="1.51"/><path d="M-280,-275L-374,110L-231,3Z" fill="#e0dfee" stroke="#e0dfee" stroke-width="1.51"/><path d="M2193,64L2250,-363L2118,-13Z" fill="#7588a7" stroke="#7588a7" stroke-width="1.51"/><path d="M2075,-309L2250,-363L1698,-316Z" fill="#8ea0be" stroke="#8ea0be" stroke-width="1.51"/><path d="M2120,711L2250,-363L2193,64Z" fill="#4f789d" stroke="#4f789d" stroke-width="1.51"/></svg>